<?xml version="1.0" encoding="utf-8"?>
<!-- Generator: Adobe Illustrator 21.0.2, SVG Export Plug-In . SVG Version: 6.00 Build 0)  -->
<svg version="1.1" id="Слой_1" xmlns="http://www.w3.org/2000/svg" xmlns:xlink="http://www.w3.org/1999/xlink" x="0px" y="0px"
	 viewBox="0 0 52.8 17.1" style="enable-background:new 0 0 52.8 17.1;" xml:space="preserve">
<style type="text/css">
	.st0{fill:#414141;}
	.st1{fill:#414141;}
</style>
<g>
	<g>
		<polygon class="st0" points="22.9,16.8 18.6,16.8 21.3,0.3 25.6,0.3 		"/>
		<path class="st0" d="M14.9,0.3l-4.1,11.4l-0.5-2.4l0,0L8.9,1.8c0,0-0.2-1.5-2-1.5H0.1L0,0.6c0,0,2.1,0.4,4.5,1.9l3.7,14.4h4.5
			l6.9-16.5H14.9z"/>
		<path class="st0" d="M48.8,16.8h4L49.3,0.3h-3.5c-1.6,0-2,1.2-2,1.2l-6.4,15.3h4.5l0.9-2.5h5.5L48.8,16.8z M44.1,11l2.3-6.2
			l1.3,6.2H44.1z"/>
		<path class="st0" d="M37.8,4.3l0.6-3.6c0,0-1.9-0.7-3.9-0.7c-2.1,0-7.2,0.9-7.2,5.5c0,4.3,6,4.3,6,6.6s-5.3,1.8-7.1,0.4l-0.6,3.7
			c0,0,1.9,0.9,4.9,0.9c2.9,0,7.4-1.5,7.4-5.7c0-4.3-6-4.7-6-6.6C31.8,3,35.9,3.3,37.8,4.3z"/>
	</g>
	<path class="st1" d="M10.4,9.2L8.9,1.8c0,0-0.2-1.5-2-1.5H0.1L0,0.6c0,0,3.3,0.7,6.4,3.2C9.4,6.2,10.4,9.2,10.4,9.2z"/>
</g>
</svg>
