<?xml version="1.0" encoding="utf-8"?>
<!-- Generator: Adobe Illustrator 21.1.0, SVG Export Plug-In . SVG Version: 6.00 Build 0)  -->
<svg version="1.1" id="Слой_1" xmlns="http://www.w3.org/2000/svg" xmlns:xlink="http://www.w3.org/1999/xlink" x="0px" y="0px"
	 viewBox="0 0 35.1 21.6" style="enable-background:new 0 0 35.1 21.6;" xml:space="preserve">
<style type="text/css">
	.st0{fill:#414141;}
	.st1{fill:#414141;}
	.st2{fill:#414141;}
</style>
<g>
	<g>
		<path class="st0" d="M13.4,10.8c0-3.4,1.6-6.5,4.1-8.5C15.7,0.9,13.4,0,10.8,0C4.8,0,0,4.8,0,10.8s4.8,10.8,10.8,10.8
			c2.5,0,4.9-0.9,6.7-2.3C15,17.3,13.4,14.3,13.4,10.8z"/>
		<path class="st1" d="M13.4,10.8c0,3.4,1.6,6.5,4.1,8.5c2.5-2,4.1-5,4.1-8.5S20,4.3,17.5,2.3C15,4.3,13.4,7.4,13.4,10.8z"/>
		<path class="st2" d="M34.4,16.7v-0.3h-0.1v-0.1h0.4v0.1h-0.1L34.4,16.7L34.4,16.7z M35,16.7v-0.3V16.7h-0.2l-0.1-0.2v0.3h-0.1
			v-0.4h0.1l0.1,0.3l0.1-0.3H35L35,16.7L35,16.7z"/>
		<path class="st2" d="M24.3,0c-2.5,0-4.9,0.9-6.7,2.3c2.5,2,4.1,5,4.1,8.5s-1.6,6.5-4.1,8.5c1.8,1.5,4.2,2.3,6.7,2.3
			c6,0,10.8-4.8,10.8-10.8S30.2,0,24.3,0z"/>
	</g>
</g>
</svg>
