<svg height="512pt" viewBox="0 -100 512 512" width="512pt" xmlns="http://www.w3.org/2000/svg"><path fill="#c9001a" d="m512 142.058594-57.75-91.058594h-120.582031v-51h-333.667969v30h303.667969v211h-141.246094c-6.597656-24.019531-28.613281-41.722656-54.699219-41.722656-26.085937 0-48.101562 17.703125-54.695312 41.722656h-38.027344v30h38.027344c6.59375 24.019531 28.613281 41.722656 54.695312 41.722656 26.085938 0 48.101563-17.703125 54.695313-41.722656h187.160156c6.597656 24.019531 28.613281 41.722656 54.695313 41.722656 26.085937 0 48.101562-17.703125 54.695312-41.722656h53.03125zm-404.277344 140.664062c-14.734375 0-26.722656-11.988281-26.722656-26.722656s11.988281-26.722656 26.722656-26.722656c14.738282 0 26.726563 11.988281 26.726563 26.722656s-11.988281 26.722656-26.726563 26.722656zm296.554688 0c-14.738282 0-26.726563-11.988281-26.726563-26.722656s11.988281-26.722656 26.726563-26.722656c14.734375 0 26.722656 11.988281 26.722656 26.722656s-11.988281 26.722656-26.722656 26.722656zm77.722656-41.722656h-23.027344c-6.59375-24.019531-28.613281-41.722656-54.695312-41.722656-26.085938 0-48.101563 17.703125-54.699219 41.722656h-15.914063v-160h104.085938l44.25 69.769531zm0 0"/><path fill="#c9001a" d="m0 51h106.128906v30h-106.128906zm0 0"/><path fill="#c9001a" d="m38.0625 150.179688h106.125v30h-106.125zm0 0"/><path fill="#c9001a" d="m19.03125 96.164062h106.125v30h-106.125zm0 0"/></svg>