<svg height="512pt" viewBox="-51 0 512 512" width="512pt" xmlns="http://www.w3.org/2000/svg"><path fill="#c9001a" d="m185 401.175781h40v40h-40zm0 0"/><path fill="#c9001a" d="m275.390625 401.175781h40v40h-40zm0 0"/><path fill="#c9001a" d="m340.5 115.851562v-115.851562c-3.910156 0-265.503906 0-271 0v115.851562h-69.5v396.148438h410v-396.148438zm-30-85.851562v173.851562h-39.890625v-173.851562zm-69.890625 0v173.851562h-21v-173.851562zm-141.109375 0h90.109375v173.851562h-90.109375zm280.5 452h-350v-336.148438h39.5v88h271v-88h39.5zm0 0"/><path fill="#c9001a" d="m69.109375 360.351562h271v-106.5h-271zm30-76.5h211v46.5h-211zm0 0"/><path fill="#c9001a" d="m94.609375 401.175781h40v40h-40zm0 0"/></svg>