<svg height="384pt" viewBox="0 0 384 384" width="384pt" xmlns="http://www.w3.org/2000/svg"><path fill="#636363" d="m272 0h-176c-54.0625 8.054688-96 57.648438-96 115.199219v140.800781h128v128h32v-128h64v128h32v-128h128v-144c0-61.761719-50.238281-112-112-112zm-80 224h-160v-80h160zm-159.847656-112c1.632812-43.632812 36.105468-79.230469 78.078125-80h1.769531c44.113281 0 80 35.886719 80 80zm319.847656 48h-64v32h64v32h-128v-112c0-31.3125-12.910156-59.65625-33.6875-80h81.6875c44.113281 0 80 35.886719 80 80zm0 0"/></svg>