<svg height="511pt" viewBox="-26 1 511 511.999" width="511pt" xmlns="http://www.w3.org/2000/svg"><path fill="#c9001a" d="m459.703125 84.792969-.421875-5.542969-79.25-79.25h-299.210938l-79.25 79.25-.421874 5.542969c-.234376 3.132812-5.554688 77.710937 18.8125 167.402343 30.839843 113.527344 96.964843 205.640626 204 256.71875l6.464843 3.085938 6.464844-3.085938c107.023437-51.070312 173.160156-143.179687 204-256.71875 24.367187-89.691406 19.050781-164.269531 18.8125-167.402343zm-47.785156 159.535156c-27.800781 102.34375-85.964844 186.308594-181.492188 234.324219-95.390625-47.945313-153.394531-131.664063-181.25-233.425782-19.585937-71.570312-19.039062-134.417968-18.355469-152.765624l62.4375-62.4375h274.335938l62.445312 62.441406c.695313 18.246094 1.28125 80.449218-18.121093 151.863281zm0 0"/><path fill="#c9001a" d="m105.691406 60.042969-45.140625 45.140625.078125 6.324218c.292969 24.707032 3.058594 74.246094 18.234375 128.417969 25.363281 90.546875 73.75 157.902344 143.804688 200.1875l7.757812 4.683594 7.757813-4.683594c70.058594-42.285156 118.441406-109.640625 143.804687-200.1875 15.179688-54.175781 17.941407-103.710937 18.234375-128.417969l.074219-6.324218-45.140625-45.140625zm12.4375 30.023437h97.285156v136.074219h-109.1875c-11.777343-44.425781-14.816406-84.984375-15.457031-108.714844zm-2.71875 166.097656h100.003906v142.859376c-45.273437-34.070313-78.796874-81.957032-100.003906-142.859376zm130.027344 142.859376v-142.859376h100.003906c-21.207031 60.902344-54.730468 108.789063-100.003906 142.859376zm109.1875-172.882813h-109.1875v-136.074219h97.285156l27.359375 27.359375c-.640625 23.730469-3.679687 64.285157-15.457031 108.714844zm0 0"/></svg>